<?xml version="1.0" encoding="utf-8"?>
<!-- Generator: Adobe Illustrator 16.0.0, SVG Export Plug-In . SVG Version: 6.00 Build 0)  -->
<!DOCTYPE svg PUBLIC "-//W3C//DTD SVG 1.1//EN" "http://www.w3.org/Graphics/SVG/1.1/DTD/svg11.dtd">
<svg version="1.1" id="Diablo" xmlns="http://www.w3.org/2000/svg" xmlns:xlink="http://www.w3.org/1999/xlink" x="0px" y="0px"
	 width="320px" height="320px" viewBox="-10.223 -30.292 320 320" enable-background="new -10.223 -30.292 320 320"
	 xml:space="preserve">
<g>
	<g id="Blanco">
		<polygon fill="#FFFFFF" points="111.06,113.275 105.069,116.636 105.522,126.168 111.605,130.751 123.315,132.114 132.21,123.812 
			131.394,115.818 127.399,111.732 		"/>
		<polyline fill="#FFFFFF" points="134.457,171.476 140.379,171.476 141.428,178.183 138.95,179.374 135.547,178.446 
			134.286,171.476 		"/>
		<polygon fill="#FFFFFF" points="113.683,53.352 113.079,61.828 113.683,69.352 115.189,70.884 121.213,69.658 125.402,66.492 
			126.152,64.041 119.309,55.633 117.198,53.148 115.256,52.297 		"/>
		<polygon fill="#FFFFFF" points="171.879,48.144 165.663,55.27 162.122,59.673 163.347,62.531 171.517,65.255 175.239,63.395 
			175.874,48.734 		"/>
		<polygon fill="#FFFFFF" points="174.915,104.472 161.394,113.182 162.156,121.72 168.155,126.258 182.092,124.896 
			193.894,117.814 194.8,107.921 190.444,101.929 184.067,100.931 		"/>
	</g>
	<g id="trazo">
		<path d="M200.862,87.07c1.436-0.951,3.424-1.631,4.741-0.281c1.664,1.701,2.608,2.816,5.131,3.357
			c4.609,0.989,9.577-0.021,13.872,2.426c4.004,2.276,5.667,7.437,6.623,11.68c1.44,6.42,1.022,12.309-1.619,18.345
			c-2.402,5.478-5.073,10.806-7.364,16.34c-3.108,7.514-7.244,14.559-10.148,22.16c-2.415,6.319-4.207,12.841-6.498,19.203
			c-3.13,8.693-8.192,17.848-16.197,22.908c-2.313,1.464-4.823,2.441-7.252,3.666c-3.411,1.716-6.93,3.216-10.573,4.371
			c-7.613,2.417-15.638,3.267-23.604,2.9c-14.646-0.667-30.3-4.96-40.117-16.52c-2.55-3.003-4.637-6.345-6.515-9.8
			c-1.821-3.344-3.896-6.616-5.11-10.249s-1.517-7.503-2.566-11.186c-0.556-1.94-0.532-4.274-2.063-5.781
			c-1.491-1.467-3.741-1.813-5.35-3.122c-1.853-1.507-3.225-3.467-4.38-5.539c-2.816-5.066-4.946-10.472-7.839-15.516
			c-2.923-5.095-5.888-10.13-6.421-16.112c-0.51-5.742,0.812-12.5,4.764-16.899c1.89-2.104,4.381-3.351,7.199-3.563
			c1.969-0.154,4.107,0.547,6.055,0.784c1.343,0.163,2.828,0.886,3.718-0.594c0.599-0.998-0.048-3.383,0.752-3.593
			c1.634-0.348,1.716,2.275,1.898,3.453c0.08,0.509-0.006,1.048,0.019,1.561c0.072,1.686,0.594,3.311,0.391,5.01
			c-0.458,3.868-0.209,7.758,0.1,11.623c0.166,2.092,0.196,4.153,0.472,6.241c0.272,2.092-0.072,4.119,0.11,6.23
			c0.173,1.992,0.731,3.85,0.803,5.846c0.212,6.079,1.6,12.221,2.473,18.237c0.902,6.204,1.665,11.646,3.85,18.771
			c2.966,9.674,7.627,18.802,16.13,24.698c5.128,3.558,10.807,6.568,16.927,7.938c6.013,1.341,12.313,1.471,18.433,1.056
			c3.47-0.236,6.92-0.679,10.354-1.175c12.136-1.747,23.916-4.63,31.827-14.747c2.564-3.285,4.374-7.052,6.063-10.835
			c1.683-3.757,3.675-7.449,4.905-11.385c0.734-2.348,1.266-4.746,1.854-7.135c0.556-2.249,0.909-4.428,0.749-6.749
			c-0.708-10.076-1.177-20.257-1.536-30.395c-0.109-2.986-0.19-5.975-0.229-8.965c-0.042-3.442-0.296-6.939-1.175-10.27
			c-0.364-1.381-0.168-2.753-0.47-4.126c-0.287-1.296-0.828-2.5-1.056-3.83c-0.292-1.713-0.116-3.472-0.44-5.181
			c-0.348-1.808-1.159-3.482-1.743-5.217C200.824,87.096,200.842,87.082,200.862,87.07z M210.664,150.071
			c0.854-0.213,1.658-0.052,1.836-1.093c0.449-2.655,1.212-5.231,2.061-7.784c1.026-3.102,2.236-6.129,3.836-8.99
			c1.172-2.102,2.332-4.209,3.438-6.346c3.311-6.393,6.204-13.453,4.206-20.731c-1.25-4.563-4.793-10.886-10.309-10.685
			c-1.361,0.049-2.66,0.525-3.879,1.113c-1.43,0.691-4.894,1.68-4.29,3.862c0.389,1.411,0.78,2.825,1.099,4.251
			c0.408,1.826,0.84,3.654,1.086,5.506c0.254,1.938,0.287,3.9,0.438,5.852c0.165,2.11,0.368,4.222,0.54,6.336
			c0.18,2.191,0.439,4.379,0.488,6.576c0.063,2.723-0.058,5.45-0.104,8.176c-0.017,0.934-0.17,1.885-0.064,2.805
			c0.344,2.91-0.136,5.773-0.37,8.651C210.613,148.366,210.664,149.17,210.664,150.071z M92.952,154.807
			c-0.286-1.022-0.547-1.75-0.691-2.497c-0.425-2.199-0.792-4.409-1.206-6.612c-0.281-1.473-0.569-2.954-0.918-4.416
			c-0.557-2.338-1.367-4.633-1.698-7c-0.453-3.222-0.68-6.489-0.773-9.747c-0.109-3.783,0.037-7.573,0.055-11.361
			c0.009-1.842,0.29-3.637,0.781-5.41c0.391-1.398-1.404-2.346-2.396-3.033c-0.895-0.617-1.883-1.035-2.969-1.154
			c-2.322-0.256-4.68,0.798-6.467,2.209c-3.971,3.132-5.272,8.621-5.128,13.469c0.176,5.91,3.294,10.363,6.292,15.229
			c1.11,1.793,2.271,3.56,3.421,5.33c1.327,2.043,2.84,3.974,3.634,6.332c0.425,1.269,0.997,2.484,1.466,3.74
			c0.396,1.064,0.677,2.172,1.128,3.209c0.377,0.866,1.148,1.418,2.084,1.533C90.605,154.765,91.662,154.748,92.952,154.807z"/>
		<path d="M150.926,96.037c0.043-0.195,0.142-0.407,0.302-0.647c0.558-0.819,1.321-1.504,1.953-2.269
			c0.782-0.949,1.576-1.887,2.396-2.807c1.622-1.818,3.34-3.548,5.185-5.143c3.759-3.25,7.998-5.833,12.258-8.36
			c4.663-2.766,9.246-5.641,13.839-8.522c4.033-2.534,8.643-5.742,13.538-6.135c4.258-0.34,6.95,2.637,7.552,6.664
			c0.721,4.832-1.041,10.19-4.458,13.672c-3.68,3.752-8.81,4.55-13.819,4.941c-5.66,0.442-11.114,1.033-16.314,3.495
			c-4.878,2.308-8.872,5.946-13.576,8.509c-3.059,1.667-5.615,1.594-7.769-1.298C151.404,97.324,150.752,96.814,150.926,96.037z"/>
		<path d="M90.243,84.961c0.702-0.711,2.082-1.01,2.962-1.34c1.475-0.553,3.025-0.868,4.576-1.127
			c3.283-0.545,6.637-0.924,9.957-1.129c6.388-0.398,13.088,0.533,18.859,3.414c3.27,1.631,6.188,4.143,8.393,7.057
			c1.313,1.732,3.621,5.303,2.247,7.582c-1.324,2.197-4.867,0.716-6.649,0.06c-4.063-1.497-7.965-3.37-12.266-4.132
			c-4.562-0.809-9.049-0.232-13.48,0.982c-3.115,0.854-7.829,3.119-10.875,0.998c-2.516-1.748-3.301-5.355-3.769-8.164
			c-0.203-1.211-0.923-2.922-0.11-4.019C90.131,85.08,90.186,85.02,90.243,84.961z"/>
		<path d="M113.28,63.244l0.403,3.813c-3.04,1.744-5.102,3.944-7.007,7.104c-1.676,2.787-3.975,5.349-7.537,5.151
			c-0.272-0.903,2.254-3.942,2.92-4.749c1.208-1.472,2.582-2.811,3.855-4.227c2.112-2.364,4.379-4.609,6.819-6.646
			C112.92,63.54,113.094,63.387,113.28,63.244z"/>
		<path d="M168.879,51.306c0.413,0.056,0.816,0.13,1.229,0.208c-0.043,0.055-0.087,0.098-0.13,0.141
			c-1.266,1.396-2.473,2.854-3.693,4.304c-0.339-0.033-0.664-0.077-1.002-0.121h-0.012c-0.521-0.063-1.047-0.132-1.567-0.206
			c-0.023-0.012-0.034-0.012-0.055-0.012c-3.628-0.545-7.211-0.773-10.883-0.644c-7.31,0.284-14.095,1.341-21.153,3.236
			c-2.865,0.784-5.709,1.603-8.29,3.062l-2.474-3.191c2.941-1.668,6.036-3.04,9.246-4.098c6.482-2.123,13.323-2.918,20.111-3.289
			c5.815-0.306,11.751-0.371,17.546,0.437C168.136,51.187,168.508,51.24,168.879,51.306z"/>
		<path d="M192.723,62.613c-3.235,1.602-5.838,2.037-8.953-0.076c-2.549-1.721-4.718-3.639-7.494-4.762
			c-0.35-0.142-0.71-0.271-1.09-0.379c-0.251-0.088-0.512-0.154-0.784-0.219c-0.099-0.021-0.208-0.043-0.306-0.064
			c0.032-0.545,0.064-1.09,0.119-1.635c0.088-0.957,0.229-1.928,0.304-2.908c0.271,0.076,0.535,0.153,0.785,0.25
			c0.382,0.108,0.741,0.239,1.111,0.36C182.375,55.303,187.581,58.768,192.723,62.613z"/>
		<path d="M139.249,111.066c0.842,0.434,0.688,1.534,0.869,2.34c0.161,0.722,0.31,1.444,0.429,2.176
			c0.252,1.574,0.377,3.169,0.371,4.767c-0.013,3.545-0.64,7.036-1.238,10.517c-0.506,2.924-1.02,5.922-0.489,8.875
			c0.504,2.839,1.875,5.452,3.243,7.956c1.212,2.212,2.412,4.809,4.172,6.65c1.389,1.452,2.244,0.13,2.836-1.298
			c1.224-2.96,1.943-6.197,2.648-9.313c0.769-3.385,1.371-6.841,1.304-10.327c-0.119-6.086-2.208-12.029-3.004-18.049
			c-0.07-0.535-0.241-1.082-0.251-1.621c-0.009-0.347-0.172-0.478,0.21-0.672c1.088-0.568,1.348,2.436,1.525,3.025
			c0.3,0.999,0.587,2.002,0.854,3.013c0.523,1.985,0.958,3.995,1.388,6.005c0.84,3.926,1.864,7.713,3.695,11.31
			c1.569,3.081,4.026,6.234,4.322,9.783c0.291,3.472-2.092,6.242-4.765,8.122c-6.231,4.391-12.988,3.677-19.665,0.771
			c-2.587-1.122-6.395-2.791-7.148-5.837c-0.782-3.141,2.03-6.477,3.525-8.965c2.235-3.719,3.857-7.59,4.339-11.93
			c0.482-4.398,0.135-8.877-0.026-13.287C138.379,114.73,137.843,110.343,139.249,111.066z M154.198,152.01
			c2.186-0.343,3.791-0.777,4.696-2.967c1.078-2.615,0.666-4.934-1.33-6.923c-1.019-1.009-2.065-1.968-3.035-3.019
			c-0.187,0.316-0.581,0.85-0.618,1.205c-0.062,0.594,0.61,1.2,0.89,1.696c0.735,1.313,1.251,2.781,1.307,4.293
			C156.179,148.439,155.279,150.228,154.198,152.01z M135.292,143.321c-0.856-0.363-1.972,1.372-2.435,1.934
			c-0.819,0.989-1.321,2.157-1.313,3.457c0.017,2.354,3.735,3.31,5.616,3.206c-0.692-1.253-1.702-2.107-1.852-3.617
			c-0.114-1.222,1.139-3.726,0.292-4.742C135.501,143.445,135.4,143.368,135.292,143.321z"/>
		<path d="M185.823,99.125c3.846,0.226,7.42,1.789,9.73,5.511c3.511,5.651,2.436,13.185-2.763,17.376
			c-2.881,2.321-6.48,3.671-9.99,4.708c-3.862,1.146-7.925,2.013-11.965,2.119c-3.119,0.085-6.535-0.351-8.831-2.679
			c-2.354-2.383-2.99-5.976-3.458-9.157c-0.183-1.244-0.438-2.269-0.239-3.524c0.155-0.959,2.723-2.441,3.45-3.096
			c1.377-1.232,2.732-2.492,4.214-3.602c3.098-2.32,6.444-4.361,10.036-5.821C179.067,99.714,182.547,98.934,185.823,99.125z
			 M181.519,122.166c1.58-0.331,3.171-0.68,4.647-1.313c4.4-1.886,6.864-7.075,6.499-11.729c-0.477-6.11-6.233-7.042-11.224-5.72
			c-3.337,0.885-6.479,2.441-9.458,4.155c-1.385,0.794-2.74,1.646-4.077,2.517c-2.311,1.507-3.971,2.332-5.289,4.91
			c-0.827,1.617,0.479,3.287,1.167,4.752c0.51,1.084,1.138,2.146,2.037,2.955c1.779,1.599,4.164,1.703,6.424,1.424
			c2.569-0.317,5.088-1.032,7.61-1.598C180.405,122.395,180.96,122.281,181.519,122.166z"/>
		<path d="M118.313,133.94c-4.108,0.039-8.359-0.936-11.677-2.947c-5.426-3.292-5.104-9.144-3.863-14.645
			c0.259-1.158,0.177-2.554,1.44-3.124c0.895-0.401,1.64-1.067,2.524-1.485c0.876-0.418,1.837-0.766,2.742-1.133
			c2.06-0.838,4.255-1.315,6.433-1.703c2.901-0.521,5.922-0.547,8.791,0.174c5.686,1.43,10.13,6.1,9.688,12.201
			c-0.423,5.836-4.863,10.403-10.364,11.903C122.239,133.667,120.292,133.922,118.313,133.94z M119.937,113.797
			c-0.506,0.07-0.987,0.143-1.431,0.212c-2.516,0.397-5.068,0.929-7.459,1.831c-0.774,0.294-1.533,0.636-2.242,1.07
			c-0.668,0.42-1.563,0.701-1.508,1.584c0.073,1.121-0.289,2.214-0.248,3.346c0.039,1.17,0.239,2.393,0.727,3.465
			c0.794,1.753,2.451,2.813,4.185,3.503c3.941,1.564,9.5,2.345,13.279-0.022c3.496-2.188,5.82-7.602,4.607-11.631
			C128.634,113.096,123.601,113.3,119.937,113.797z"/>
		<path d="M147.489,193.002c-0.396,0.013-0.792,0.006-1.178-0.021c-3.629-0.258-7.34-1.611-10.422-3.519
			c-4.089-2.527-7.306-6.306-10.563-9.805c-0.933-1.005-2.791-2.628-3.061-4.025c-0.179-0.93,0.582-2.292,1.077-3.051
			c0.73-1.118,1.86-1.925,2.973-2.626c2.313-1.457,4.83-2.7,7.548-3.146c2.879-0.472,5.918-0.563,8.828-0.47
			c3.06,0.1,6.098,0.674,9.135,0.043c1.595-0.332,3.125-0.932,4.741-1.172c2.723-0.403,5.65,0.335,8.332,0.783
			c0.675,0.112,1.347,0.256,2.016,0.414c1.265,0.296,2.523,0.613,3.787,0.928c2.341,0.583,4.456,1.008,5.458,3.427
			c0.792,1.904,0.647,4.047-0.391,5.844c-0.802,1.388-2.121,1.992-3.551,2.563c-1.795,0.713-3.471,1.567-5.079,2.648
			c-2.895,1.933-5.765,3.906-8.591,5.938c-2.341,1.686-4.688,3.513-7.41,4.549C149.996,192.733,148.734,192.967,147.489,193.002z
			 M127.315,171.437c-1.146,0.362-2.214,0.948-2.383,2.08c-0.098,0.652,0.55,1.506,0.774,2.111c0.282,0.751,0.589,1.495,0.931,2.223
			c0.738,1.551,1.657,3.011,2.756,4.329c2.51,3.014,5.869,5.339,9.496,6.801c3.468,1.396,7.26,1.944,10.932,1.105
			c3.698-0.843,7.001-2.902,10.127-4.971c3.388-2.246,6.788-4.575,9.875-7.227c1.497-1.285,4.595-3.8,3.438-6.13
			c-0.532-1.08-1.773-1.702-2.834-2.142c-1.744-0.718-3.623-1.105-5.479-1.403c-4.551-0.733-9.213-0.88-13.815-0.729
			c-3.927,0.127-7.841,0.529-11.711,1.219c-3.316,0.59-6.596,1.378-9.865,2.186C128.963,171.041,128.119,171.186,127.315,171.437z"
			/>
		<path d="M173.061,162.07c-0.299-0.04-0.603-0.072-0.905-0.094c-2.641-0.189-5.285,0.401-7.89,0.741
			c-2.526,0.334-7.055,1.348-9.418-0.066c-2.082-1.246,0.709-3.588,1.854-4.23c2.341-1.315,5.009-1.646,7.618-2.047
			c2.694-0.419,5.436-0.424,8.134-0.025c5.275,0.772,15.319,2.945,19.343,6.575c1.144,1.029,1.865,2.2-0.099,2.504
			c-2.532,0.386-9.442-0.847-11.823-1.552C177.637,163.212,175.386,162.385,173.061,162.07z"/>
		<path d="M108.774,170.357c0.87-1.403,3.531-2.604,4.924-3.556c1.774-1.21,3.567-2.401,5.417-3.498
			c3.609-2.137,7.445-3.985,11.589-4.791c2.173-0.423,4.67-0.541,6.861-0.158c1.385,0.244,3.875,0.939,3.865,2.751
			c-0.012,1.757-2.43,2.55-3.77,2.918c-5.24,1.437-10.529,0.998-15.562,3.416c-2.346,1.128-4.57,2.714-7.122,3.376
			c-1.062,0.277-2.137,0.355-3.229,0.235c-0.963-0.111-2.157-0.161-2.98-0.672C108.765,170.37,108.769,170.362,108.774,170.357z"/>
		<path d="M171.987,146.417c0.074-0.896,0.498-1.881,0.677-2.633c0.253-1.066,0.604-2.111,1.118-3.081
			c1.002-1.883,2.598-3.26,4.396-4.359c2.099-1.281,4.354-2.318,6.543-3.432c2.504-1.275,4.988-2.615,7.577-3.723
			c0.422-0.18,3.702-1.718,3.854-0.707c0.068,0.478-0.869,1.137-1.162,1.371c-0.908,0.727-1.929,1.324-2.956,1.858
			c-2.396,1.252-4.945,2.104-7.48,3.02c-2.069,0.75-4.029,1.653-5.646,3.187c-2.687,2.555-4.363,5.978-6.389,9.038
			c-0.116,0.177-0.266,0.354-0.4,0.512C171.987,147.144,171.957,146.788,171.987,146.417z"/>
		<path d="M152.993,195.183c1.456-0.143,2.642,0.143,3.621,1.38c0.795,1.01,2.255,3.676,1.608,5.03
			c-0.609,1.273-2.117-1.264-2.481-1.749c-1.072-1.433-2.046-2.247-3.905-2.045c-2.184,0.244-4.358,0.526-6.546,0.753
			c-2.123,0.22-3.635,0.952-4.959,2.642c-0.444,0.569-2.149,3.216-2.696,1.382c-0.237-0.781,0.153-1.737,0.541-2.396
			c0.696-1.187,1.507-2.235,2.84-2.659c1.875-0.597,3.79-1.158,5.741-1.457c1.972-0.299,3.953-0.586,5.928-0.842
			C152.789,195.201,152.893,195.191,152.993,195.183z"/>
		<path d="M122.241,153.218c-1.58-1.598-1.009-4.251-1.164-6.277c-0.177-2.253-0.912-4.592-2.913-5.876
			c-2.203-1.414-5.249-1.128-7.734-1.619c-1.336-0.267-2.645-0.69-3.999-0.867c-0.688-0.092-4.755,0.572-4.87-0.317
			c-0.203-1.571,8.748-0.41,9.765-0.289c2.56,0.313,5.38,0.728,7.672,1.988C123.706,142.555,122.766,148.738,122.241,153.218z"/>
		<path d="M139.786,99.51c0.038-1.302,0.172-2.602,0.274-3.902c0.036-0.474,0.247-0.777,0.766-0.746
			c0.478,0.026,0.762,0.262,0.734,0.777c-0.022,0.45-0.069,0.896-0.069,1.344c-0.002,1.877,0.004,3.748,0.021,5.621
			c0.002,0.397,0.162,0.864-0.4,1c-0.504,0.119-1.188-0.363-1.247-0.91c-0.073-0.648-0.067-1.305-0.082-1.957
			C139.772,100.328,139.774,99.919,139.786,99.51z"/>
		<path d="M143.402,99.54c-0.007-0.869,0.034-1.737,0.113-2.597c0.044-0.479,0.097-0.965,0.313-1.406
			c0.07-0.143,1.023-1.079,1.039-0.922c0.161,1.533,0.329,3.068,0.376,4.611c0.029,0.951,0.31,3.649-0.599,4.335
			c-0.934,0.704-1.127-1.771-1.167-2.26C143.43,100.718,143.406,100.13,143.402,99.54z"/>
		<path d="M148.77,99.374c0.066,0.884,0.091,1.762-0.07,2.491c-0.386,1.76-1.524,0.535-1.695-0.65
			c-0.102-0.713-0.102-6.932,1.198-6.314c0.456,0.219,0.364,1.692,0.379,2.074C148.601,97.689,148.705,98.531,148.77,99.374z"/>
		<path d="M219.64,117.431c-1.027-0.188-2.41-0.252-3.453-0.159c-0.139,0.893-0.248,2.836-1.19,3.34
			c-0.981,0.521-1.035-1.291-1.012-1.834c0.045-1.056,0.278-2.668,1.254-3.302c0.922-0.595,2.318-0.151,3.337-0.144
			c1.155,0.008,2.415-0.231,3.018-1.328c0.551-0.999,0.519-2.346,0.45-3.451c-0.138-2.288-1.383-4.404-3.216-5.783
			c-1.05-0.789-2.236-0.824-3.499-0.857c-0.514-0.012-1.077-0.002-1.561-0.213c-0.919-0.406-0.898-1.053,0.139-1.188
			c0.839-0.113,1.663,0.114,2.495,0.189c0.942,0.082,1.88,0.27,2.752,0.638c1.785,0.754,3.126,2.237,3.834,4.026
			c1.583,4.021-0.294,7.76-2.265,11.221c-2.327,4.09-3.42,8.469-4.693,12.961c-0.125,0.434-0.827,3.758-1.527,3.73
			c-0.672-0.024-0.094-3.139-0.041-3.474c0.735-4.615,2.295-9.14,4.541-13.234C219.213,118.187,219.424,117.81,219.64,117.431z"/>
		<path d="M76.777,122.932c1.174-0.18,2.171-0.355,3.174-0.48c0.727-0.088,1.461-0.166,2.189-0.148
			c0.858,0.021,1.274,0.396,1.433,1.229c0.205,1.078,0.391,2.162,0.501,3.252c0.03,0.3-0.157,0.742-0.392,0.924
			c-0.379,0.292-0.87,0.068-1.053-0.297c-0.302-0.605-0.494-1.271-0.665-1.93c-0.138-0.533-0.173-1.097-0.271-1.744
			c-1.588,0.223-3.087,0.194-4.504,0.994c0.688,1.812,1.345,3.528,2.362,5.045c1.423,2.115,3.034,4.108,4.476,6.215
			c0.794,1.162,1.383,2.472,2.109,3.687c1.093,1.834,1.307,3.927,1.815,5.931c0.294,1.159,0.644,2.266,1.531,3.135
			c0.199,0.196,0.257,0.534,0.383,0.813c-1.428,0.505-2.252,0.249-2.81-0.997c-0.48-1.066-0.816-2.209-1.146-3.34
			c-0.363-1.249-0.521-2.565-0.997-3.765c-0.776-1.971-1.763-3.838-3.08-5.541c-1.468-1.894-2.911-3.83-4.14-5.883
			c-1.102-1.842-1.861-3.865-2.447-5.972c-0.509-1.836-0.666-3.575-0.124-5.39c0.207-0.694,0.405-1.395,0.567-2.1
			c0.209-0.914,0.345-1.845,0.574-2.752c0.451-1.791,1.344-3.293,2.916-4.344c0.708-0.472,1.361-1.021,2.225-1.236
			c1.224-0.307,2.25,0.129,3.22,0.776c0.151,0.101,0.158,0.412,0.231,0.626c-0.215,0.059-0.513,0.239-0.629,0.158
			c-1.969-1.359-3.326-0.055-4.571,1.148c-1.054,1.02-1.759,2.312-1.915,3.854c-0.079,0.801-0.256,1.622-0.55,2.375
			c-0.377,0.972-0.625,2.001-0.7,3.042C76.477,120.426,76.533,122.97,76.777,122.932z"/>
		<path d="M179.602,115.812c0.001,1.558-1.329,2.443-2.729,1.782c-0.878-0.416-1.496-1.139-1.855-2.021
			c-0.411-0.998,0.477-2.277,1.572-2.381C178.146,113.051,179.601,114.314,179.602,115.812z"/>
		<path d="M117.498,123.783c-0.777-0.11-1.583-0.539-1.975-1.051c-0.646-0.841-0.491-2.377,0.279-3.063
			c0.84-0.757,2.439-0.519,3.096,0.419c0.486,0.703,0.7,1.822,0.484,2.656C119.147,123.654,118.336,123.902,117.498,123.783z"/>
		<path d="M135.141,170.833c1.385,0.058,2.658-0.053,4.038-0.188c0.801-0.081,1.607-0.161,2.411-0.237
			c4.816-0.455,9.713-1.256,14.558-0.995c1.399,0.071,2.796,0.249,4.163,0.564c3.401,0.779,7.466,3.105,5.758,7.179
			c-0.87,2.079-2.686,3.718-4.47,5.017c-2.317,1.684-4.935,2.971-7.643,3.896c-4.772,1.639-10.308,2.271-14.966-0.063
			c-3.863-1.929-6.839-5.704-8.922-9.399c-0.368-0.653-1.831-1.859-1.307-2.729c0.35-0.579,0.989-0.902,1.521-1.282
			c0.565-0.406,1.072-0.96,1.773-1.13 M135.291,171.745c0.383,2.23,1.09,4.109,1.68,6c0.917,0.219,1.637,0.165,2.563-0.068
			c0.536-0.137,0.776-0.455,0.719-0.962c-0.156-1.481-0.333-2.972-0.966-4.213C137.959,172.247,136.773,172.021,135.291,171.745z"/>
		<path d="M176.276,57.775c-0.034-0.815-0.024-1.623,0.053-2.451c0.068-0.719,0.088-1.426,0.088-2.146
			c0.012-0.753,0-1.504,0.022-2.255c0.032-1.253,0.339-2.539-0.022-3.77c-0.238-0.785-0.826-1.623-1.624-1.873
			c-0.882-0.285-2.09,0.119-2.786,0.664c-0.665,0.5-1.113,1.23-1.569,1.906c-0.793,1.178-1.722,2.244-2.679,3.279
			c-1.319,1.447-2.715,2.832-3.943,4.357c-0.034,0.043-0.075,0.086-0.109,0.142c-1.066,1.317-2.155,2.93-2.571,4.586
			c-0.13,0.501-0.064,1.144,0.143,1.612c0.393,0.883,1.341,1.515,2.157,1.981c1.079,0.632,2.275,1.013,3.465,1.384
			c1,0.315,2.036,0.6,3.093,0.631c0.11,0,1.023,0.131,1.132,0.131c0.904-0.032,1.517,0.175,2.364-0.131
			c0.753-0.26,1.297-0.608,1.92-1.121c1.206-0.991,1.11-3.683,0.969-5.098C176.319,58.986,176.276,58.376,176.276,57.775z
			 M174.217,55.478c-0.057,0.544-0.089,1.089-0.12,1.634c-0.043,1.023-0.043,2.037-0.012,3.072c0.021,1.012,0.143,2.266-0.545,3.104
			c-0.763,0.938-2.167,0.981-3.268,0.851c-1.549-0.163-3.072-0.729-4.424-1.503c-0.587-0.326-1.145-0.708-1.655-1.133
			c-0.339-0.262-1.429-0.85-1.22-1.329c0.15-0.338,0.359-0.654,0.565-0.958c0.305-0.414,0.644-0.795,0.979-1.178
			c0.6-0.686,1.188-1.383,1.765-2.08c1.221-1.449,2.43-2.909,3.693-4.303c0.043-0.045,0.087-0.088,0.13-0.142
			c0.797-0.882,1.743-1.95,2.875-2.353c0.961-0.338,1.362,0.369,1.493,1.187c0.023,0.077,0.033,0.165,0.033,0.241
			c0.064,0.652,0.055,1.318,0.011,1.98C174.445,53.55,174.304,54.52,174.217,55.478z"/>
		<path d="M127.121,64.293c0.115,0.541,0.139,1.115,0.028,1.732c-0.269,1.508-1.541,2.539-2.806,3.252
			c-1.48,0.838-3.122,1.431-4.73,1.976c-1.478,0.501-3.266,1.133-4.835,0.711c-2.725-0.731-2.799-4.075-2.687-6.29
			c0.06-1.223-0.085-2.383-0.188-3.596c-0.104-1.209,0.021-2.416-0.06-3.625c-0.076-1.135-0.276-2.301,0.037-3.42
			c0.173-0.617,0.491-1.174,0.593-1.813c0.166-1.037,0.076-1.95,1.178-2.503c0.937-0.467,2.169-0.188,2.985,0.429
			c1.196,0.908,2.074,2.237,2.997,3.406c1.067,1.351,2.146,2.698,3.272,3.999C124.394,60.258,126.627,61.982,127.121,64.293z
			 M118.716,68.912c0.565-0.188,1.115-0.413,1.63-0.62c1.253-0.509,2.829-1.127,3.701-2.22c0.714-0.896,0.357-1.83-0.229-2.69
			c-0.877-1.289-1.98-2.433-2.973-3.634c-1.032-1.252-2.004-2.648-3.256-3.695c-0.43-0.355-0.899-0.658-1.43-0.842
			c-0.302-0.104-1.11-0.442-1.384-0.249c-0.413,0.297-0.205,1.627-0.229,2.083c-0.041,0.791-0.064,1.581-0.072,2.371
			c-0.02,1.588,0.014,3.173,0.033,4.759c0.021,1.535-0.6,5.075,1.701,5.174C117.034,69.386,117.892,69.187,118.716,68.912z"/>
	</g>
</g>
</svg>
