<?xml version="1.0" encoding="utf-8"?>
<!-- Generator: Adobe Illustrator 16.0.0, SVG Export Plug-In . SVG Version: 6.00 Build 0)  -->
<!DOCTYPE svg PUBLIC "-//W3C//DTD SVG 1.1//EN" "http://www.w3.org/Graphics/SVG/1.1/DTD/svg11.dtd">
<svg version="1.1" id="Layer_1" xmlns="http://www.w3.org/2000/svg" xmlns:xlink="http://www.w3.org/1999/xlink" x="0px" y="0px"
	 width="512px" height="512px" viewBox="0 0 512 512" enable-background="new 0 0 512 512" xml:space="preserve">
<path fill="#090909" d="M512,450.56c0,33.936-27.511,61.44-61.44,61.44H61.439C27.507,512,0,484.492,0,450.56V61.439
	C0,27.508,27.507,0,61.439,0H450.56C484.49,0,512,27.507,512,61.439V450.56z"/>
<g>
	<path fill="#FFFFFF" d="M259.781,82.533c46.899,1.043,85.569,16.618,116.019,46.713l18.036-18.598
		c-10.454-11.143-22.274-20.592-35.452-28.359c-8.125-4.799-16.768-8.959-25.952-12.49C308.381,60.613,282.092,56,253.546,56
		c-7.785,0-15.443,0.357-22.911,1.065c-29.646,2.764-56.851,11.052-81.588,24.853c-30.993,17.27-55.415,41.129-73.246,71.545
		c-17.828,30.432-26.756,64.6-26.756,102.54c0,37.938,8.928,72.104,26.756,102.54c17.831,30.41,42.253,54.275,73.246,71.546
		c24.737,13.795,51.941,22.086,81.588,24.847c7.468,0.713,15.126,1.065,22.911,1.065c28.173,0,54.368-4.705,78.586-14.094
		c8.96-3.477,17.419-7.527,25.392-12.193c13.553-7.917,25.653-17.569,36.313-28.921L375.8,382.195
		c-30.809,30.451-69.488,46.192-116.018,47.255V265.71h134.054V240H259.781V82.533z M230.635,428.107
		c-23.728-2.782-45.761-9.84-66.09-21.137c-27.057-15.01-48.269-35.755-63.67-62.246c-15.403-26.477-23.097-56.049-23.097-88.723
		c0-32.673,7.692-62.248,23.097-88.744c15.401-26.475,36.613-47.217,63.67-62.248c20.329-11.293,42.362-18.336,66.09-21.137V428.107
		z"/>
	<g>
		<g>
			<g>
				<image overflow="visible" width="74" height="74" xlink:href="87CCDAD1.png"  transform="matrix(1 0 0 1 407.5002 215.5)">
				</image>
				<g>
					<path fill="#F6C82E" d="M462.954,252.445c0.028,10.225-8.236,18.54-18.459,18.571c-10.227,0.026-18.542-8.236-18.571-18.457
						c-0.029-10.229,8.236-18.54,18.464-18.575C454.612,233.958,462.926,242.221,462.954,252.445z"/>
				</g>
			</g>
		</g>
	</g>
	<g>
		<g>
			<image overflow="visible" width="74" height="74" xlink:href="87CCDAD3.png"  transform="matrix(1 0 0 1 387.5002 315.5)">
			</image>
			<g>
				<g>
					<path fill="#2A9DDB" d="M442.954,352.445c0.028,10.225-8.236,18.539-18.459,18.57c-10.227,0.026-18.542-8.236-18.571-18.457
						c-0.029-10.229,8.236-18.539,18.464-18.574C434.612,333.958,442.926,342.221,442.954,352.445z"/>
				</g>
			</g>
		</g>
	</g>
	<g>
		<g>
			<image overflow="visible" width="74" height="74" xlink:href="87CCDAD6.png"  transform="matrix(1 0 0 1 391.5002 115.5)">
			</image>
			<g>
				<g>
					<path fill="#E02125" d="M447.471,152.445c0.027,10.225-8.237,18.539-18.459,18.57c-10.228,0.027-18.542-8.236-18.572-18.456
						c-0.029-10.229,8.237-18.54,18.464-18.575C439.127,133.958,447.442,142.221,447.471,152.445z"/>
				</g>
			</g>
		</g>
	</g>
</g>
</svg>
