<?xml version="1.0" encoding="utf-8"?>
<!-- Generator: Adobe Illustrator 16.0.0, SVG Export Plug-In . SVG Version: 6.00 Build 0)  -->
<!DOCTYPE svg PUBLIC "-//W3C//DTD SVG 1.1//EN" "http://www.w3.org/Graphics/SVG/1.1/DTD/svg11.dtd">
<svg version="1.1" id="Layer_1" xmlns="http://www.w3.org/2000/svg" xmlns:xlink="http://www.w3.org/1999/xlink" x="0px" y="0px"
	 width="745.933px" height="178.241px" viewBox="0 0 745.933 178.241" enable-background="new 0 0 745.933 178.241"
	 xml:space="preserve">
<g>
	<path fill="#FFFFFF" d="M83.504,76.832H24.785c-6.885,0-12.739-2.282-17.557-6.847C2.409,65.421,0,59.704,0,52.83V25.002
		c0-6.873,2.409-12.591,7.229-17.155C12.046,3.282,17.9,1,24.785,1h58.719v17.704H24.785c-4.722,0-7.081,2.106-7.081,6.321v27.782
		c0,4.214,2.359,6.321,7.081,6.321h58.719V76.832z"/>
	<path fill="#FFFFFF" d="M199.762,52.83c0,6.874-2.412,12.591-7.23,17.155c-4.819,4.564-10.673,6.847-17.556,6.847H130.42
		c-6.886,0-12.739-2.282-17.558-6.847c-4.819-4.564-7.228-10.281-7.228-17.155V25.002c0-6.873,2.408-12.591,7.228-17.155
		C117.681,3.282,123.534,1,130.42,1h44.556c6.883,0,12.736,2.282,17.556,6.847c4.818,4.564,7.23,10.283,7.23,17.155V52.83z
		 M182.058,52.807V25.025c0-4.214-2.362-6.321-7.082-6.321H130.42c-4.722,0-7.081,2.106-7.081,6.321v27.782
		c0,4.214,2.359,6.321,7.081,6.321h44.556C179.695,59.128,182.058,57.021,182.058,52.807z"/>
	<path fill="#FFFFFF" d="M315.131,53.375c0,6.394-2.017,11.902-6.048,16.524c-4.034,4.624-9.198,6.933-15.491,6.933H243.43
		c-6.395,0-11.581-2.31-15.564-6.933c-3.984-4.622-5.975-10.13-5.975-16.524V1h17.704v52.375c0,3.835,1.28,5.753,3.844,5.753h50.291
		c2.464,0,3.697-1.918,3.697-5.753V1h17.704V53.375z"/>
	<path fill="#FFFFFF" d="M418.258,76.832h-17.704l-45.588-51.046v51.046h-17.704V1h17.704l45.588,50.751V1h17.704V76.832z"/>
	<path fill="#FFFFFF" d="M526.546,18.704h-34.227v58.128h-17.704V18.704h-34.228V1h86.158V18.704z"/>
	<path fill="#FFFFFF" d="M628.643,18.704H565.35v11.36h59.16v17.705h-59.16v11.359h63.146v17.704h-80.851V1h80.998V18.704z"/>
	<path fill="#FFFFFF" d="M739.885,76.832h-24.197l-37.915-42.49h45.586c3.248,0,4.87-2.605,4.87-7.819
		c0-5.213-1.622-7.819-4.87-7.819h-54.882v58.128h-17.704V1h73.62c6.786,0,12.146,2.655,16.082,7.966
		c3.637,4.821,5.458,10.673,5.458,17.558c0,6.885-1.821,12.739-5.458,17.557c-3.936,5.311-9.296,7.966-16.082,7.966h-6.785
		L739.885,76.832z"/>
</g>
<g>
	<path fill="#FFFFFF" d="M162.765,141.612h-39.883v7.158h37.28v11.156h-37.28v7.158h39.791v11.156h-50.947v-47.785h51.04V141.612z"
		/>
	<path fill="#FFFFFF" d="M224.589,178.241H176.71v-47.785h11.157v36.629h36.723V178.241z"/>
	<path fill="#FFFFFF" d="M289.573,141.612H249.69v7.158h37.28v11.156h-37.28v7.158h39.791v11.156h-50.947v-47.785h51.04V141.612z"/>
	<path fill="#FFFFFF" d="M365.622,178.241h-11.157v-29.1l-19.895,28.355l-19.896-28.355v29.1h-11.156v-47.785h11.715l19.337,27.609
		L354,130.456h11.622V178.241z"/>
	<path fill="#FFFFFF" d="M430.608,141.612h-39.887v7.158h37.281v11.156h-37.281v7.158h39.791v11.156h-50.947v-47.785h51.043V141.612
		z"/>
	<path fill="#FFFFFF" d="M495.591,178.241h-11.158l-28.725-32.168v32.168h-11.156v-47.785h11.156l28.725,31.982v-31.982h11.158
		V178.241z"/>
	<path fill="#FFFFFF" d="M563.831,141.612h-21.568v36.629h-11.156v-36.629h-21.57v-11.156h54.295V141.612z"/>
	<path fill="#FFFFFF" d="M634.208,163.504c0,4.018-1.207,7.447-3.627,10.289c-2.602,2.967-5.889,4.447-9.854,4.447h-41.279v-11.156
		h41.279c1.549,0,2.324-1.193,2.324-3.58c0-2.383-0.775-3.578-2.324-3.578h-30.029c-3.967,0-7.252-1.488-9.855-4.463
		c-2.479-2.787-3.719-6.197-3.719-10.225c0-4.031,1.271-7.5,3.813-10.416c2.541-2.912,5.795-4.367,9.762-4.367h41.277v11.156
		h-41.367c-1.551,0-2.328,1.207-2.328,3.627c0,2.354,0.777,3.531,2.328,3.531H620.7c3.973,0,7.266,1.482,9.873,4.447
		C632.997,156.061,634.208,159.491,634.208,163.504z"/>
</g>
</svg>
